<svg viewBox="0 0 1000 500" xmlns="http://www.w3.org/2000/svg">
  <rect width="1000" height="500" fill="#B22234"/>
  <rect width="1000" height="423" fill="#FFFFFF"/>
  <rect width="1000" height="346" fill="#B22234"/>
  <rect width="1000" height="269" fill="#FFFFFF"/>
  <rect width="1000" height="192" fill="#B22234"/>
  <rect width="1000" height="115" fill="#FFFFFF"/>
  <rect width="400" height="269" fill="#3C3B6E"/>
  <g fill="#FFFFFF">
    <path id="star" d="M10,0L13.1,6.5L20,7.5L14.7,12.5L16.2,19.4L10,15.6L3.8,19.4L5.3,12.5L0,7.5L6.9,6.5Z"/>
    <g id="stars-row">
      <use href="#star" x="20" y="20"/>
      <use href="#star" x="60" y="20"/>
      <use href="#star" x="100" y="20"/>
      <use href="#star" x="140" y="20"/>
      <use href="#star" x="180" y="20"/>
      <use href="#star" x="220" y="20"/>
    </g>
    <g id="stars-row-odd">
      <use href="#star" x="40" y="45"/>
      <use href="#star" x="80" y="45"/>
      <use href="#star" x="120" y="45"/>
      <use href="#star" x="160" y="45"/>
      <use href="#star" x="200" y="45"/>
    </g>
    <use href="#stars-row" y="50"/>
    <use href="#stars-row-odd" y="50"/>
    <use href="#stars-row" y="100"/>
    <use href="#stars-row-odd" y="100"/>
    <use href="#stars-row" y="150"/>
    <use href="#stars-row-odd" y="150"/>
    <use href="#stars-row" y="200"/>
  </g>
</svg>